<svg width="50" height="50" viewBox="0 0 50 50" fill="none" xmlns="http://www.w3.org/2000/svg">
<path d="M49.9854 0H0.0146484C0.00655833 0 0 0.00655833 0 0.0146484V49.9854C0 49.9934 0.00655833 50 0.0146484 50H49.9854C49.9934 50 50 49.9934 50 49.9854V0.0146484C50 0.00655833 49.9934 0 49.9854 0Z" fill="#1877F2"/>
<path d="M34.7266 32.2266L35.8398 25H28.9062V20.3125C28.9062 18.3398 29.873 16.4062 32.9785 16.4062H36.1328V10.2539C36.1328 10.2539 33.2715 9.76562 30.5371 9.76562C24.8242 9.76562 21.0938 13.2227 21.0938 19.4922V25H14.7461V32.2266H21.0938V50H28.9062V32.2266H34.7266Z" fill="white"/>
</svg>
