<svg width="50" height="50" viewBox="0 0 50 50" fill="none" xmlns="http://www.w3.org/2000/svg">
<path d="M49.9854 0H0.0146484C0.00655833 0 0 0.00650749 0 0.0145349V49.5979C0 49.6059 0.00655833 49.6124 0.0146484 49.6124H49.9854C49.9934 49.6124 50 49.6059 50 49.5979V0.0145349C50 0.00650749 49.9934 0 49.9854 0Z" fill="#1B1817"/>
<path d="M32.7148 48.3528C34.082 48.3528 33.8867 50.0001 33.8867 50.0001H16.1133C16.1133 50.0001 15.9179 48.3528 17.2851 48.3528C18.5547 48.3528 18.8476 47.7714 18.8476 47.19L18.75 42.3451C11.8164 43.8955 10.3515 39.6319 10.3515 39.6319C9.17966 36.7249 7.61716 36.0466 7.61716 36.0466C5.27341 34.4962 7.71481 34.4962 7.71481 34.4962C10.2539 34.69 11.6211 37.0156 11.6211 37.0156C13.7695 40.7947 17.3828 39.7288 18.8476 39.1474C19.0429 37.5001 19.7265 36.4342 20.4101 35.7559C14.8437 35.1745 9.082 33.0427 9.082 23.5466C9.082 20.8334 10.0586 18.6047 11.6211 16.8605C11.3281 16.2791 10.5468 13.7598 11.914 10.3683C11.914 10.3683 13.9648 9.68999 18.75 12.8877C22.8515 11.7249 27.1484 11.7249 31.25 12.8877C36.0351 9.68999 38.0859 10.3683 38.0859 10.3683C39.4531 13.7598 38.6719 16.2791 38.3789 16.8605C39.9414 18.6047 40.918 20.8334 40.918 23.5466C40.918 33.0427 35.0586 35.1745 29.4922 35.7559C30.4687 36.5311 31.25 38.0815 31.25 40.4071L31.1523 47.19C31.1523 47.7714 31.4453 48.3528 32.7148 48.3528Z" fill="white"/>
</svg>
