<svg width="50" height="50" viewBox="0 0 50 50" fill="none" xmlns="http://www.w3.org/2000/svg">
<path d="M12.6788 49.8226C10.7449 49.801 8.82909 49.4463 7.01562 48.774C5.69134 48.2845 4.4932 47.5052 3.50879 46.4932C2.49398 45.5107 1.71355 44.3123 1.22548 42.9868C0.553795 41.1734 0.199597 39.2578 0.17843 37.3241C0.0299017 34.1095 0 33.1453 0 24.9998C0 16.8542 0.0328428 15.8935 0.176959 12.6763C0.200695 10.7434 0.555329 8.82882 1.22548 7.01562C1.71593 5.69112 2.49525 4.4925 3.50683 3.50683C4.49002 2.49293 5.68872 1.71323 7.01415 1.22548C8.82762 0.553238 10.7434 0.198541 12.6773 0.176959C15.893 0.0299017 16.8587 0 24.9998 0C33.1409 0 34.106 0.0328428 37.3232 0.176959C39.2566 0.200528 41.1717 0.555164 42.9854 1.22548C44.3102 1.71387 45.5086 2.4933 46.4922 3.50634C47.5055 4.49027 48.2853 5.68896 48.774 7.01415C49.4464 8.82759 49.8013 10.7434 49.823 12.6773C49.9701 15.8945 50 16.8577 50 25.0007C50 33.1438 49.9701 34.107 49.823 37.3241C49.7997 39.2578 49.4449 41.1731 48.774 42.9868C48.2666 44.3021 47.4894 45.4965 46.4924 46.4933C45.4954 47.49 44.3008 48.2669 42.9854 48.774C41.1719 49.4464 39.2562 49.8013 37.3222 49.823C34.108 49.9701 33.1418 50 24.9988 50C16.8557 50 15.8925 49.9716 12.6783 49.823" fill="url(#paint0_radial_132_18)"/>
<path d="M12.6788 49.8226C10.7449 49.801 8.82909 49.4463 7.01562 48.774C5.69134 48.2845 4.4932 47.5052 3.50879 46.4932C2.49398 45.5107 1.71355 44.3123 1.22548 42.9868C0.553795 41.1734 0.199597 39.2578 0.17843 37.3241C0.0299017 34.1095 0 33.1453 0 24.9998C0 16.8542 0.0328428 15.8935 0.176959 12.6763C0.200695 10.7434 0.555329 8.82882 1.22548 7.01562C1.71593 5.69112 2.49525 4.4925 3.50683 3.50683C4.49002 2.49293 5.68872 1.71323 7.01415 1.22548C8.82762 0.553238 10.7434 0.198541 12.6773 0.176959C15.893 0.0299017 16.8587 0 24.9998 0C33.1409 0 34.106 0.0328428 37.3232 0.176959C39.2566 0.200528 41.1717 0.555164 42.9854 1.22548C44.3102 1.71387 45.5086 2.4933 46.4922 3.50634C47.5055 4.49027 48.2853 5.68896 48.774 7.01415C49.4464 8.82759 49.8013 10.7434 49.823 12.6773C49.9701 15.8945 50 16.8577 50 25.0007C50 33.1438 49.9701 34.107 49.823 37.3241C49.7997 39.2578 49.4449 41.1731 48.774 42.9868C48.2666 44.3021 47.4894 45.4965 46.4924 46.4933C45.4954 47.49 44.3008 48.2669 42.9854 48.774C41.1719 49.4464 39.2562 49.8013 37.3222 49.823C34.108 49.9701 33.1418 50 24.9988 50C16.8557 50 15.8925 49.9716 12.6783 49.823" fill="url(#paint1_radial_132_18)"/>
<path d="M18.8611 25.1061C18.8612 23.8815 19.2245 22.6844 19.9049 21.6662C20.5854 20.6481 21.5524 19.8545 22.6839 19.386C23.8153 18.9175 25.0603 18.795 26.2613 19.034C27.4624 19.2731 28.5655 19.8629 29.4314 20.7289C30.2972 21.595 30.8868 22.6983 31.1255 23.8994C31.3643 25.1005 31.2415 26.3455 30.7727 27.4768C30.3039 28.6081 29.5101 29.575 28.4918 30.2552C27.4735 30.9354 26.2764 31.2984 25.0517 31.2982C23.4097 31.2979 21.835 30.6454 20.6741 29.4842C19.5131 28.3229 18.861 26.7481 18.8611 25.1061V25.1061ZM15.5136 25.1061C15.5136 26.9925 16.073 28.8366 17.1211 30.4052C18.1691 31.9737 19.6588 33.1962 21.4017 33.9182C23.1445 34.6401 25.0623 34.829 26.9125 34.4609C28.7628 34.0929 30.4623 33.1845 31.7962 31.8505C33.1302 30.5166 34.0386 28.8171 34.4066 26.9669C34.7746 25.1166 34.5858 23.1988 33.8638 21.456C33.1419 19.7131 31.9194 18.2234 30.3509 17.1754C28.7823 16.1273 26.9382 15.5679 25.0517 15.5679C23.7992 15.5679 22.5588 15.8145 21.4016 16.2938C20.2443 16.7732 19.1928 17.4757 18.3071 18.3614C17.4214 19.2471 16.7188 20.2986 16.2395 21.4559C15.7602 22.6131 15.5135 23.8535 15.5136 25.1061V25.1061ZM32.7384 15.19C32.7382 15.6308 32.8688 16.0618 33.1135 16.4285C33.3583 16.7951 33.7063 17.0809 34.1135 17.2498C34.5207 17.4187 34.9688 17.463 35.4012 17.3772C35.8336 17.2914 36.2309 17.0793 36.5427 16.7677C36.8546 16.4561 37.067 16.0591 37.1532 15.6268C37.2394 15.1944 37.1955 14.7463 37.0269 14.3389C36.8584 13.9316 36.5729 13.5833 36.2065 13.3383C35.84 13.0932 35.4091 12.9623 34.9683 12.9621V12.9621C34.3774 12.9623 33.8108 13.1971 33.3929 13.6148C32.975 14.0326 32.7399 14.5991 32.7394 15.19H32.7384ZM17.5484 40.226C16.3705 40.2131 15.2037 39.9975 14.0989 39.5888C13.2977 39.28 12.5701 38.8068 11.9628 38.1998C11.3555 37.5928 10.8821 36.8653 10.573 36.0643C10.164 34.9596 9.94847 33.7927 9.93572 32.6148C9.84552 30.657 9.82788 30.0688 9.82788 25.1085C9.82788 20.1483 9.84748 19.5615 9.93572 17.6017C9.95001 16.424 10.1655 15.2574 10.573 14.1522C10.8817 13.3508 11.355 12.623 11.9623 12.0157C12.5697 11.4084 13.2975 10.9351 14.0989 10.6263C15.2036 10.2174 16.3705 10.0018 17.5484 9.98906C19.5062 9.89886 20.0944 9.88121 25.0527 9.88121C30.011 9.88121 30.5997 9.90034 32.5595 9.98955C33.7372 10.0038 34.9039 10.2194 36.009 10.6268C36.8104 10.9356 37.5382 11.4089 38.1455 12.0162C38.7528 12.6235 39.2261 13.3513 39.5349 14.1527C39.9438 15.2574 40.1594 16.4243 40.1722 17.6022C40.2624 19.563 40.28 20.1483 40.28 25.109C40.28 30.0697 40.2619 30.656 40.1722 32.6158C40.1585 33.7936 39.9429 34.9603 39.5349 36.0653C39.2258 36.8663 38.7524 37.5938 38.1451 38.2008C37.5378 38.8078 36.8102 39.2809 36.009 39.5897C34.9043 39.9987 33.7374 40.2142 32.5595 40.227C30.6017 40.3172 30.0135 40.3348 25.0527 40.3348C20.092 40.3348 19.5057 40.3167 17.5484 40.227V40.226ZM17.3945 6.64448C15.8532 6.67479 14.3283 6.9665 12.8847 7.50721C11.6507 7.98435 10.5299 8.7141 9.59436 9.64966C8.6588 10.5852 7.92905 11.7059 7.45191 12.94C6.91127 14.3836 6.61956 15.9085 6.58918 17.4498C6.49752 19.4301 6.47693 20.0635 6.47693 25.108C6.47693 30.1526 6.49801 30.7854 6.58918 32.7663C6.61955 34.3075 6.91126 35.8324 7.45191 37.276C7.92908 38.5101 8.65883 39.6308 9.59439 40.5664C10.5299 41.5019 11.6507 42.2317 12.8847 42.7088C14.3284 43.2493 15.8533 43.541 17.3945 43.5716C19.3758 43.6618 20.0082 43.6838 25.0527 43.6838C30.0973 43.6838 30.7301 43.6628 32.711 43.5716C34.2522 43.5411 35.7771 43.2494 37.2207 42.7088C38.4548 42.2317 39.5755 41.5019 40.5111 40.5664C41.4466 39.6308 42.1764 38.5101 42.6535 37.276C43.1949 35.8326 43.4866 34.3076 43.5163 32.7663C43.6065 30.7844 43.627 30.1526 43.627 25.108C43.627 20.0635 43.606 19.4306 43.5163 17.4498C43.486 15.9085 43.1942 14.3836 42.6535 12.94C42.1764 11.7062 41.4468 10.5856 40.5115 9.65009C39.5763 8.71456 38.4559 7.98468 37.2222 7.50721C35.7787 6.96615 34.2537 6.67443 32.7125 6.64448C30.7316 6.5538 30.0988 6.53223 25.0552 6.53223C20.0116 6.53223 19.3773 6.55331 17.3954 6.64448" fill="white"/>
<defs>
<radialGradient id="paint0_radial_132_18" cx="0" cy="0" r="1" gradientUnits="userSpaceOnUse" gradientTransform="translate(3.23575 48.9044) scale(63.4808)">
<stop offset="0.09" stop-color="#FA8F21"/>
<stop offset="0.78" stop-color="#D82D7E"/>
</radialGradient>
<radialGradient id="paint1_radial_132_18" cx="0" cy="0" r="1" gradientUnits="userSpaceOnUse" gradientTransform="translate(34.633 47.2986) scale(55.8637)">
<stop offset="0.64" stop-color="#8C3AAA" stop-opacity="0"/>
<stop offset="1" stop-color="#8C3AAA"/>
</radialGradient>
</defs>
</svg>
