<svg width="50" height="50" viewBox="0 0 50 50" fill="none" xmlns="http://www.w3.org/2000/svg">
<path d="M38.7773 0H11.2227C5.02458 0 0 5.02458 0 11.2227V38.7773C0 44.9754 5.02458 50 11.2227 50H38.7773C44.9754 50 50 44.9754 50 38.7773V11.2227C50 5.02458 44.9754 0 38.7773 0Z" fill="#FD3832"/>
<path d="M22.6186 11.2747H21.0599L20.0035 15.31L18.9124 11.2747H17.319L18.3062 14.1323C18.682 15.1732 18.9886 16.2377 19.2241 17.319V21.4756H20.7828V17.319L22.6186 11.2747ZM26.7406 19.0509V16.4011C26.7756 15.7932 26.6246 15.1891 26.3076 14.6692C26.1147 14.4242 25.8688 14.2262 25.5883 14.09C25.3078 13.9539 25.0001 13.8831 24.6883 13.8831C24.3765 13.8831 24.0687 13.9539 23.7883 14.09C23.5078 14.2262 23.2618 14.4242 23.0689 14.6692C22.751 15.1886 22.5998 15.7931 22.636 16.4011V19.0509C22.5987 19.659 22.7499 20.2638 23.0689 20.7828C23.2618 21.0278 23.5078 21.2258 23.7883 21.362C24.0687 21.4981 24.3765 21.5689 24.6883 21.5689C25.0001 21.5689 25.3078 21.4981 25.5883 21.362C25.8688 21.2258 26.1147 21.0278 26.3076 20.7828C26.6246 20.2629 26.7756 19.6588 26.7406 19.0509V19.0509ZM25.3551 19.3107C25.3551 20.0208 25.1472 20.3671 24.6969 20.3671C24.2466 20.3671 24.0388 20.0208 24.0388 19.3107V16.124C24.0388 15.4139 24.2466 15.0675 24.6969 15.0675C25.1472 15.0675 25.3551 15.4139 25.3551 16.124V19.3107ZM31.8843 21.5275V13.8552H30.4988V19.709C30.1871 20.142 29.8926 20.3671 29.6155 20.3671C29.3384 20.3671 29.3211 20.2632 29.2865 20.0381C29.2716 19.8594 29.2716 19.6798 29.2865 19.5012V13.8552H27.9009V19.9168C27.8844 20.3018 27.9252 20.687 28.0222 21.0599C28.0843 21.2438 28.2076 21.4008 28.3715 21.5048C28.5353 21.6088 28.7299 21.6535 28.9228 21.6314C29.2268 21.604 29.5219 21.5145 29.79 21.3685C30.0581 21.2226 30.2934 21.0232 30.4815 20.7828V21.6141L31.8843 21.5275ZM27.5199 29.2864C27.3883 29.2923 27.2593 29.3244 27.1403 29.3809C27.0213 29.4375 26.9148 29.5172 26.8272 29.6155V34.2397C26.9142 34.3387 27.0205 34.419 27.1396 34.4756C27.2588 34.5322 27.3882 34.5639 27.5199 34.5687C27.9183 34.5687 28.1088 34.2397 28.1088 33.5469V30.3083C28.1088 29.6328 27.9183 29.2864 27.5199 29.2864ZM32.6117 29.2864C32.1441 29.2864 31.919 29.6328 31.919 30.3429V31.0357H33.2872V30.3429C33.3045 29.6328 33.062 29.2864 32.6117 29.2864Z" fill="white"/>
<path d="M35.9716 25.4242C35.8457 24.8419 35.541 24.3136 35.1 23.913C34.6591 23.5124 34.1039 23.2597 33.5123 23.1901C30.6858 22.9279 27.8468 22.8238 25.0086 22.8783C22.1705 22.8238 19.3315 22.9279 16.505 23.1901C15.9103 23.2563 15.3513 23.5075 14.9069 23.9083C14.4626 24.3092 14.1553 24.8394 14.0284 25.4242C13.6977 27.1937 13.5641 28.9943 13.6301 30.7931C13.564 32.592 13.6976 34.3926 14.0284 36.162C14.1567 36.7432 14.4621 37.2702 14.9026 37.6703C15.3431 38.0705 15.8969 38.3241 16.4877 38.3962C19.32 38.6583 22.1647 38.7624 25.0086 38.7079C27.8468 38.7617 30.6857 38.6576 33.5123 38.3962C34.103 38.3241 34.6569 38.0705 35.0974 37.6703C35.5379 37.2702 35.8433 36.7432 35.9716 36.162C36.3023 34.3926 36.4359 32.592 36.3699 30.7931C36.4359 28.9943 36.3023 27.1937 35.9716 25.4242ZM20.1247 26.9656H18.3928V35.6251H16.938V26.9656H15.3273V25.5281H20.1247V26.9656ZM24.2813 35.6251H22.913V34.7938C22.733 35.0538 22.4991 35.272 22.2271 35.4334C21.9551 35.5948 21.6515 35.6956 21.337 35.729C21.147 35.747 20.9564 35.7004 20.7961 35.5967C20.6359 35.493 20.5152 35.3382 20.4537 35.1575C20.3578 34.7904 20.3169 34.411 20.3325 34.0318V28.1433H21.7007V33.72C21.6885 33.8988 21.6885 34.0782 21.7007 34.2569C21.7007 34.4648 21.8393 34.586 22.0298 34.586C22.2203 34.586 22.6013 34.3782 22.8957 33.9452V28.1433H24.2466L24.2813 35.6251ZM29.477 33.3563C29.4952 33.8682 29.4486 34.3802 29.3384 34.8804C29.2825 35.1261 29.1433 35.3449 28.9444 35.4995C28.7455 35.6542 28.4992 35.7353 28.2473 35.729C27.9629 35.7079 27.687 35.622 27.4409 35.4779C27.1948 35.3339 26.9848 35.1354 26.8271 34.8977V35.6251H25.4589V25.5455H26.8271V28.8707C26.9857 28.6353 27.1962 28.4395 27.4425 28.2984C27.6887 28.1573 27.9641 28.0746 28.2473 28.0567C28.4992 28.0504 28.7455 28.1315 28.9444 28.2862C29.1433 28.4409 29.2825 28.6597 29.3384 28.9053C29.4507 29.4052 29.4973 29.9175 29.477 30.4294V33.3563ZM34.6727 32.092H31.9363V33.4429C31.9363 34.153 32.1614 34.4994 32.629 34.4994C32.7823 34.5042 32.9315 34.4489 33.0447 34.3454C33.1579 34.2419 33.2262 34.0983 33.2352 33.9452C33.2524 33.6337 33.2524 33.3215 33.2352 33.01H34.638V34.1011C34.5998 34.3985 34.4931 34.6831 34.3263 34.9324C34.1351 35.2088 33.8741 35.4296 33.57 35.5726C33.2658 35.7156 32.9292 35.7755 32.5944 35.7464C32.2635 35.7725 31.9313 35.7148 31.6286 35.5786C31.3258 35.4424 31.0624 35.232 30.8625 34.967C30.5424 34.4484 30.3911 33.8433 30.4295 33.2351V30.6026C30.3911 29.9944 30.5424 29.3893 30.8625 28.8707C31.0613 28.6045 31.3246 28.3932 31.6276 28.2569C31.9306 28.1205 32.2633 28.0636 32.5944 28.0914C32.909 28.0765 33.2224 28.14 33.5065 28.276C33.7906 28.412 34.0366 28.6163 34.2224 28.8707C34.5393 29.3906 34.6903 29.9947 34.6553 30.6026L34.6727 32.092Z" fill="white"/>
</svg>
